Coordinates
version=1
nRows=7
nColumns=40
inDegrees=yes

Units are S.I. units (second, meters, Newtons, ...)
Angles are in degrees.

endheader
time	pelvis_tilt	pelvis_list	pelvis_rotation	pelvis_tx	pelvis_ty	pelvis_tz	hip_flexion_r	hip_adduction_r	hip_rotation_r	knee_angle_r	knee_angle_r_beta	ankle_angle_r	subtalar_angle_r	mtp_angle_r	hip_flexion_l	hip_adduction_l	hip_rotation_l	knee_angle_l	knee_angle_l_beta	ankle_angle_l	subtalar_angle_l	mtp_angle_l	lumbar_extension	lumbar_bending	lumbar_rotation	arm_flex_r	arm_add_r	arm_rot_r	elbow_flex_r	pro_sup_r	wrist_flex_r	wrist_dev_r	arm_flex_l	arm_add_l	arm_rot_l	elbow_flex_l	pro_sup_l	wrist_flex_l	wrist_dev_l
      0.88000000	     -3.80694259	      0.08354191	     -2.31434913	     -0.01823183	      0.87301449	      1.10810429	     -5.22979307	     -2.56718271	     -7.99606848	    -28.63640959	     -0.49979963	      8.85750246	     -2.36784880	     -6.14996917	     32.46638943	      5.07952678	     12.46195992	    -28.54317912	     -0.49817245	      0.11570981	     11.68178041	      2.63433516	     -1.41819224	     -2.77858086	      3.48508364	      5.96945038	    -11.26076161	    -15.73031348	     39.01170263	     89.95437384	      0.00000000	      0.00000000	    -10.67896359	      7.47522709	     15.60415138	     18.20067623	     89.95437384	      0.00000000	      0.00000000
      0.89000000	     -3.71528079	      0.24866721	     -2.10587212	     -0.00758183	      0.87296199	      1.10562781	     -5.12431437	     -2.94021360	     -7.91909452	    -30.19150581	     -0.52694118	      7.69794878	     -2.67536177	     -5.80119460	     32.33321455	      4.80490949	     12.24134530	    -29.60394767	     -0.51668636	     -0.61076701	     11.34756080	      2.61813462	     -1.40648820	     -3.04293986	      3.03595323	      5.49942730	    -11.08747157	    -15.72920563	     39.17656395	     89.95437384	      0.00000000	      0.00000000	    -10.55121047	      7.52981569	     15.45965278	     18.35155739	     89.95437384	      0.00000000	      0.00000000
      0.90000000	     -3.75618135	      0.50671706	     -1.93255908	      0.00301826	      0.87295642	      1.10318867	     -4.55634132	     -3.59240767	     -8.53512224	    -32.25955659	     -0.56303548	      5.76913496	     -3.71573505	     -5.21490232	     32.28441685	      4.46704319	     12.35995557	    -30.64098156	     -0.53478601	     -0.35069843	     11.81728002	      2.59877454	     -1.21081192	     -3.39220070	      2.77111338	      4.95444165	    -10.84480994	    -16.04176060	     39.20142317	     89.95437384	      0.00000000	      0.00000000	    -10.12008818	      7.66662015	     15.24340264	     18.12535133	     89.95437384	      0.00000000	      0.00000000
      0.91000000	     -4.00630830	      0.81328431	     -1.58983446	      0.01319820	      0.87281547	      1.10054172	     -3.62103769	     -4.08071638	     -8.53955533	    -34.51603715	     -0.60241849	      3.61981258	     -5.56450017	     -4.10791329	     32.33341897	      3.63713669	     11.41684073	    -31.29261927	     -0.54615924	      0.03688008	     13.57412027	      2.86549554	     -0.83134291	     -3.79167488	      2.33131501	      4.33496719	    -10.53398908	    -16.46497521	     39.31443660	     89.95437384	      0.00000000	      0.00000000	     -9.67609405	      7.81896081	     15.01975036	     17.95540013	     89.95437384	      0.00000000	      0.00000000
      0.92000000	     -3.76269906	      0.96560568	     -1.35094141	      0.02411721	      0.87344006	      1.09805262	     -3.19126941	     -4.64499184	     -9.20863356	    -36.77490607	     -0.64184319	      1.00954582	     -6.05280232	     -3.41690333	     31.72332965	      3.15919457	     11.03957278	    -31.99110532	     -0.55835012	      0.80966376	     13.34519233	      2.76106022	     -0.95363151	     -4.01954781	      1.94021944	      3.76898236	    -10.36549035	    -16.56862299	     39.29359453	     89.95437384	      0.00000000	      0.00000000	     -9.28509481	      7.95088120	     14.80897794	     17.98067532	     89.95437384	      0.00000000	      0.00000000
      0.93000000	     -3.65163668	      1.34184870	     -0.95515406	      0.03459025	      0.87405055	      1.09515153	     -2.43068448	     -5.36244198	     -9.68260066	    -39.24112634	     -0.68488686	     -2.25751289	     -7.98813134	     -1.88137401	     31.12227249	      2.09925882	      9.98316125	    -32.29164682	     -0.56359556	      1.32477843	     14.28360680	      3.05441379	     -0.99569031	     -4.47520406	      1.47365367	      3.15331488	    -10.10109352	    -16.88908250	     39.23899944	     89.95437384	      0.00000000	      0.00000000	     -8.76192541	      8.13067919	     14.58047364	     18.01800691	     89.95437384	      0.00000000	      0.00000000
      0.94000000	     -3.40609896	      1.51052383	     -0.70579930	      0.04502653	      0.87488479	      1.09256230	     -1.73456605	     -5.97348163	    -10.19012993	    -41.59261816	     -0.72592813	     -5.42245009	     -8.35232917	     -1.03257349	     30.40257198	      1.59257397	      9.68953170	    -32.85636705	     -0.57345179	      2.27051771	     14.21324142	      3.01338878	     -1.20260738	     -4.68422027	      1.06058264	      2.60028836	     -9.97570128	    -16.85264089	     39.15814708	     89.95437384	      0.00000000	      0.00000000	     -8.21395454	      8.25259411	     14.42107131	     18.05299892	     89.95437384	      0.00000000	      0.00000000
